<?xml version="1.0" standalone="no"?>
<!DOCTYPE svg PUBLIC "-//W3C//DTD SVG 20010904//EN"
 "http://www.w3.org/TR/2001/REC-SVG-20010904/DTD/svg10.dtd">
<svg version="1.0" xmlns="http://www.w3.org/2000/svg"
 width="640.000000pt" height="640.000000pt" viewBox="0 0 640.000000 640.000000"
 preserveAspectRatio="xMidYMid meet">
<metadata>
Created by potrace 1.14, written by Peter Selinger 2001-2017
</metadata>
<g transform="translate(0.000000,640.000000) scale(0.100000,-0.100000)"
fill="#000000" stroke="none">
<path d="M2935 5233 c-46 -2 -74 -7 -66 -12 7 -5 -10 -7 -41 -5 -32 2 -43 0
-28 -4 24 -7 25 -11 28 -84 1 -42 9 -96 17 -119 9 -23 14 -43 13 -44 -2 -1
-16 -7 -33 -13 -29 -11 -28 -11 9 -5 28 4 37 3 32 -6 -4 -6 -16 -11 -27 -11
-10 0 -19 -4 -19 -9 0 -5 15 -5 36 -1 49 11 32 -1 -41 -30 -33 -13 -121 -52
-195 -88 -74 -35 -164 -78 -200 -93 -96 -43 -129 -60 -102 -53 21 5 22 2 23
-48 1 -29 1 -57 0 -61 -1 -5 9 -6 21 -2 22 7 22 6 3 -7 -56 -40 -212 -120
-291 -149 -82 -30 -98 -33 -204 -32 -80 0 -128 5 -157 16 l-42 16 -62 -67
c-86 -94 -259 -325 -259 -347 0 -9 99 -51 163 -70 81 -23 193 -33 272 -24 152
18 280 87 510 273 179 145 276 219 281 213 3 -2 -8 -40 -23 -83 -24 -71 -27
-93 -27 -219 -1 -128 2 -147 27 -219 62 -177 197 -327 365 -404 l57 -26 -35
-8 c-65 -16 -351 -21 -458 -9 -213 25 -464 104 -668 210 -56 30 -91 43 -91 35
0 -7 4 -11 8 -8 4 2 38 -14 76 -37 258 -159 570 -256 886 -275 104 -7 107 -8
107 -31 0 -22 -4 -23 -63 -23 -135 0 -307 31 -487 87 -90 29 -295 125 -364
172 -56 38 -76 47 -46 21 38 -32 86 -62 192 -118 165 -89 312 -141 521 -187
42 -9 77 -21 77 -26 0 -5 15 -10 33 -10 30 -2 30 -2 5 -6 -16 -2 -28 -10 -28
-18 0 -7 -6 -16 -12 -18 -7 -3 16 -4 52 -2 63 4 64 4 20 -6 -25 -5 -63 -7 -85
-4 -22 3 -43 6 -47 6 -4 0 -22 5 -40 10 -18 6 -46 13 -62 15 -48 9 -226 74
-288 105 -100 51 -205 116 -290 181 -96 72 -240 207 -233 218 2 3 -2 7 -10 7
-25 0 4 -37 129 -163 339 -339 765 -550 1251 -620 251 -36 571 -20 823 41 161
39 445 147 463 177 3 5 9 9 13 7 4 -1 25 8 47 20 l39 22 -15 36 c-8 19 -15 60
-15 89 0 30 -4 54 -10 54 -15 0 -12 77 3 83 6 3 1 6 -13 7 -24 1 -24 1 -6 15
17 13 15 15 -25 25 -24 7 -59 10 -79 7 -19 -3 -44 -1 -55 3 -17 7 -14 9 15 10
19 1 27 4 18 7 -13 3 -18 15 -18 44 0 38 -1 39 -37 40 l-38 1 38 10 c43 12 50
32 9 26 -19 -3 -29 0 -29 9 0 7 8 13 18 13 9 0 19 6 22 14 9 23 176 87 260 99
73 10 178 3 254 -19 18 -5 34 7 90 66 73 77 195 234 231 299 l23 40 -38 19
c-106 53 -271 88 -373 78 -172 -16 -284 -76 -585 -317 -94 -74 -185 -146 -204
-159 -39 -27 -39 -31 0 75 33 92 38 276 10 379 -23 82 -63 169 -106 226 -70
95 -211 210 -236 194 -8 -4 -9 -3 -5 5 5 7 -11 20 -46 35 -47 21 -61 23 -104
15 -27 -6 -61 -10 -76 -11 -16 -1 -28 -5 -28 -10 0 -4 -19 -6 -42 -3 -31 3
-36 2 -18 -3 l25 -8 -30 -7 c-90 -18 -93 -18 -55 -3 25 10 29 15 15 15 -41 2
9 21 55 21 44 0 44 0 21 16 -17 12 -26 13 -34 5 -6 -6 -20 -11 -32 -11 -64 1
124 53 295 81 63 10 119 19 123 19 4 0 3 9 -2 19 -9 15 -7 20 12 25 63 17 262
-5 437 -48 228 -56 468 -178 685 -346 87 -67 94 -69 55 -20 -65 84 -275 287
-370 357 -284 209 -591 342 -930 402 -108 19 -374 43 -430 39 -14 -1 -61 -4
-105 -5z m160 -543 c-3 -5 -12 -10 -18 -10 -7 0 -6 4 3 10 19 12 23 12 15 0z
m-655 -104 c0 -3 -4 -8 -10 -11 -5 -3 -10 -1 -10 4 0 6 5 11 10 11 6 0 10 -2
10 -4z m679 -210 c12 -26 12 -33 0 -54 -8 -14 -21 -30 -30 -35 -24 -15 -66 0
-85 29 -16 24 -16 28 0 60 15 33 19 35 59 32 35 -3 44 -8 56 -32z m-145 -111
c19 -19 10 -45 -15 -45 -22 0 -34 22 -25 45 7 19 21 19 40 0z m717 -268 c-10
-9 -11 -8 -5 6 3 10 9 15 12 12 3 -3 0 -11 -7 -18z m6 -79 c-3 -7 -5 -2 -5 12
0 14 2 19 5 13 2 -7 2 -19 0 -25z m-13 -14 c3 -8 2 -12 -4 -9 -6 3 -10 10 -10
16 0 14 7 11 14 -7z m-1001 -681 c-7 -2 -21 -2 -30 0 -10 3 -4 5 12 5 17 0 24
-2 18 -5z m64 -9 c-3 -3 -12 -4 -19 -1 -8 3 -5 6 6 6 11 1 17 -2 13 -5z m-39
-31 c-10 -2 -26 -2 -35 0 -10 3 -2 5 17 5 19 0 27 -2 18 -5z m1657 -13 c-3 -5
-12 -10 -18 -10 -7 0 -6 4 3 10 19 12 23 12 15 0z m-1648 -26 c-3 -3 -12 -4
-19 -1 -8 3 -5 6 6 6 11 1 17 -2 13 -5z"/>
<path d="M3608 4813 c6 -2 18 -2 25 0 6 3 1 5 -13 5 -14 0 -19 -2 -12 -5z"/>
<path d="M4410 3229 c0 -5 5 -7 10 -4 6 3 10 8 10 11 0 2 -4 4 -10 4 -5 0 -10
-5 -10 -11z"/>
<path d="M2593 3183 c9 -2 23 -2 30 0 6 3 -1 5 -18 5 -16 0 -22 -2 -12 -5z"/>
<path d="M2235 2490 c-16 -4 -102 -9 -190 -10 -109 -1 -151 -4 -131 -10 16 -5
33 -15 37 -22 5 -7 9 -139 9 -293 0 -154 -4 -286 -9 -293 -4 -7 -21 -17 -37
-22 -19 -5 42 -8 170 -7 l198 2 24 65 c28 78 30 98 5 50 -11 -19 -31 -46 -46
-60 -24 -23 -35 -25 -136 -28 l-110 -4 3 139 3 138 60 3 c88 5 122 -4 140 -36
14 -26 14 -24 14 48 0 72 0 74 -15 48 -18 -34 -40 -40 -129 -36 l-70 3 -3 143
-3 143 113 -3 113 -3 17 -35 18 -35 0 63 c0 34 -3 61 -7 61 -5 -1 -21 -5 -38
-9z"/>
<path d="M2478 2193 c1 -164 0 -308 -3 -320 -3 -15 -17 -26 -38 -32 -25 -7
-10 -9 68 -9 55 1 88 3 73 5 -14 2 -31 10 -37 17 -8 9 -10 91 -9 252 l3 239
85 -90 c47 -50 148 -158 226 -240 78 -83 153 -163 167 -180 l26 -30 1 315 c0
173 4 321 9 328 4 7 21 17 37 22 21 6 1 8 -71 8 -72 0 -92 -2 -71 -8 16 -5 33
-15 37 -22 5 -7 9 -121 9 -253 l-1 -240 -36 40 c-20 22 -70 76 -112 120 -42
44 -139 146 -215 228 -76 81 -141 147 -145 147 -3 0 -5 -134 -3 -297z"/>
<path d="M3691 2469 c-65 -26 -128 -86 -162 -154 -19 -40 -25 -69 -27 -142 -6
-142 35 -235 132 -300 63 -43 115 -57 206 -57 81 1 131 17 187 60 50 38 65 68
72 145 7 75 -2 95 -13 28 -13 -79 -60 -144 -131 -182 -30 -16 -58 -21 -115
-21 -64 0 -83 4 -128 29 -94 51 -142 146 -142 280 0 191 102 308 269 307 103
0 181 -47 217 -129 8 -18 16 -33 18 -33 1 0 -1 21 -5 48 -4 26 -8 55 -8 64 -1
11 -22 28 -53 45 -46 23 -67 27 -158 30 -88 3 -114 0 -159 -18z"/>
<path d="M4404 2470 c-64 -25 -133 -91 -164 -155 -31 -66 -39 -198 -16 -276
24 -83 79 -148 160 -189 62 -31 75 -34 154 -34 68 0 98 5 137 23 51 23 98 61
118 96 13 23 26 156 15 148 -5 -2 -8 -14 -8 -26 -1 -32 -37 -108 -68 -140 -48
-51 -99 -71 -182 -71 -58 0 -85 5 -117 22 -108 56 -160 167 -151 320 10 169
112 275 265 275 93 0 167 -40 210 -112 l32 -54 -5 39 c-14 91 -17 98 -69 124
-70 35 -235 40 -311 10z"/>
<path d="M1374 2470 c16 -5 33 -15 37 -22 5 -7 9 -139 9 -293 0 -154 -4 -286
-9 -293 -4 -7 -21 -17 -37 -22 -20 -5 21 -8 126 -9 174 -1 213 10 262 67 32
39 42 80 33 139 -8 54 -60 116 -112 134 l-35 11 28 19 c60 39 81 125 48 195
-11 23 -32 41 -67 59 -47 23 -61 25 -181 24 -91 0 -122 -3 -102 -9z m231 -34
c62 -26 86 -126 45 -193 -22 -37 -39 -47 -95 -58 l-40 -8 54 -9 c108 -17 155
-65 156 -158 0 -100 -57 -150 -172 -150 l-63 0 0 295 0 295 40 0 c22 0 56 -6
75 -14z"/>
<path d="M3215 2473 c11 -3 28 -12 38 -21 15 -14 17 -41 17 -297 0 -256 -2
-283 -17 -297 -10 -9 -27 -18 -38 -21 -11 -2 27 -5 85 -4 58 0 95 2 83 4 -50
10 -53 27 -53 318 0 291 3 308 53 318 12 2 -25 4 -83 4 -58 1 -96 -2 -85 -4z"/>
<path d="M4937 2473 c50 -10 53 -26 53 -324 0 -250 -2 -277 -17 -291 -10 -9
-27 -18 -38 -21 -11 -2 27 -5 85 -4 58 0 95 2 83 4 -50 10 -53 27 -53 314 0
147 3 275 6 284 4 10 21 23 38 31 28 12 22 13 -74 12 -58 0 -95 -3 -83 -5z"/>
<path d="M2349 1573 c-13 -16 -12 -17 4 -4 9 7 17 15 17 17 0 8 -8 3 -21 -13z"/>
<path d="M2254 1504 c-18 -14 -18 -15 4 -4 12 6 22 13 22 15 0 8 -5 6 -26 -11z"/>
<path d="M2400 1516 c0 -2 8 -10 18 -17 15 -13 16 -12 3 4 -13 16 -21 21 -21
13z"/>
<path d="M2436 1467 c3 -10 9 -15 12 -12 3 3 0 11 -7 18 -10 9 -11 8 -5 -6z"/>
<path d="M3060 1469 c0 -5 5 -7 10 -4 6 3 10 8 10 11 0 2 -4 4 -10 4 -5 0 -10
-5 -10 -11z"/>
<path d="M2703 1451 c-13 -11 -22 -29 -22 -43 1 -20 2 -20 6 -3 3 11 14 30 26
43 25 27 20 28 -10 3z"/>
<path d="M3950 1460 c-8 -5 -10 -10 -5 -10 6 0 17 5 25 10 8 5 11 10 5 10 -5
0 -17 -5 -25 -10z"/>
<path d="M4018 1393 c12 -2 30 -2 40 0 9 3 -1 5 -23 4 -22 0 -30 -2 -17 -4z"/>
<path d="M2422 1352 l-23 -37 26 28 c14 15 25 32 25 38 0 14 -3 11 -28 -29z"/>
<path d="M2681 1343 c0 -29 2 -33 8 -18 7 18 4 55 -5 55 -2 0 -4 -17 -3 -37z"/>
<path d="M4060 1358 c0 -6 -8 -21 -17 -32 -14 -16 -14 -18 -2 -8 9 6 19 9 22
5 4 -3 7 6 7 20 0 15 -2 27 -5 27 -3 0 -5 -5 -5 -12z"/>
<path d="M3623 1318 c11 -10 31 -18 46 -17 24 1 23 2 -6 9 -18 4 -39 11 -46
16 -7 5 -4 1 6 -8z"/>
<path d="M2277 1319 c7 -7 15 -10 18 -7 3 3 -2 9 -12 12 -14 6 -15 5 -6 -5z"/>
<path d="M3079 1318 c14 -19 46 -24 55 -9 4 5 -3 7 -14 4 -11 -3 -28 1 -38 8
-15 13 -16 12 -3 -3z"/>
<path d="M2323 1303 c9 -2 23 -2 30 0 6 3 -1 5 -18 5 -16 0 -22 -2 -12 -5z"/>
<path d="M2748 1303 c6 -2 18 -2 25 0 6 3 1 5 -13 5 -14 0 -19 -2 -12 -5z"/>
<path d="M3983 1303 c9 -2 23 -2 30 0 6 3 -1 5 -18 5 -16 0 -22 -2 -12 -5z"/>
</g>
</svg>
